# xmcd
#
# Track frame offsets: 
#        150
#        16526
#        37627
#        54327
#        67967
#        80961
#        95424
#        106650
#        124946
#        138737
#        158697
#        171026
#        181209
#        192055
#        200317
#        211112
#        223486
#        233563
#        248670
#        258851
#        271350
#        277801
#        286111
#        295262
#        306637
#
# Disc length: 4192 seconds
#
# Revision: 1
# Processed by: cddbd v1.5.2PL0 Copyright (c) Steve Scherf et al.
# Submitted via: ExactAudioCopyFreeDBPlugin 1.0
#
DISCID=5a105e19
DTITLE=Hazlewood, Lee - Trouble Is A Lonesome Town
DYEAR=1963
DGENRE=Country
TTITLE0=Long Black Train
TTITLE1=Ugly Brown
TTITLE2=Son Of A Gun
TTITLE3=We All Make The Flowers Grow
TTITLE4=Run Boy Run
TTITLE5=Six Fee Of Chain
TTITLE6=The Railroad
TTITLE7=Look At The Woman
TTITLE8=Pecurliar Guy
TTITLE9=Trouble Is A Lonesome Town
TTITLE10=It's An Actuality
TTITLE11=I Guess It's Love
TTITLE12=Fort Worth
TTITLE13=Robinson, Mark - Pretty Jane
TTITLE14=Robinson, Mark - Want Me
TTITLE15=Eddy, Duane and His Orchestra Feat. Hazlewood, Lee - The Girl O
TTITLE15=n Death Row
TTITLE16=Eddy, Duane and His Orchestra Feat. Hazlewood, Lee - Words Mean
TTITLE16=Nothing
TTITLE17=Robinson, Mark - Can't Let Her See Me Cry
TTITLE18=Robinson, Mark - I've Made Enough Mistakes Today
TTITLE19=Who Is Lee Hazlewood?
TTITLE20=Moved From Place Of Birth
TTITLE21=Girl In High School
TTITLE22=In The Army
TTITLE23=Disc Jockey
TTITLE24=Record Biz
EXTD=
EXTT0=
EXTT1=
EXTT2=
EXTT3=
EXTT4=
EXTT5=
EXTT6=
EXTT7=
EXTT8=
EXTT9=
EXTT10=
EXTT11=
EXTT12=
EXTT13=
EXTT14=
EXTT15=
EXTT16=
EXTT17=
EXTT18=
EXTT19=
EXTT20=
EXTT21=
EXTT22=
EXTT23=
EXTT24=
PLAYORDER=
